<svg xmlns="http://www.w3.org/2000/svg" enable-background="new 0 0 512 512" viewBox="0 0 512 512" id="earth"><path fill="#cfe9ff" d="M509.219,256c0,12.014-0.862,23.867-2.478,35.45C489.555,414.504,383.903,509.219,256,509.219
			c-33.403,0-65.298-6.465-94.499-18.21C89.737,462.077,34.299,401.305,12.64,326.201C6.229,303.896,2.781,280.352,2.781,256
			c0-37.39,8.081-72.841,22.628-104.79c22.466-49.243,60.234-90.082,107.214-116.373C169.097,14.418,211.175,2.781,256,2.781
			c40.569,0,78.929,9.536,112.871,26.507C452.11,70.773,509.219,156.759,509.219,256z"></path><path fill="#e6f5ff" d="M302.064,6.983C297,10.7,290.589,12.963,284.339,14.31c-9.967,2.155-20.419,2.694-29.74,6.95
			c-12.445,5.657-21.281,17.294-33.511,23.544c-19.827,10.129-44.987,3.61-62.497-10.237c-3.287-2.586-6.358-5.334-9.213-8.297
			C181.758,11.185,217.909,2.781,256,2.781C271.678,2.781,287.141,4.181,302.064,6.983z"></path><path fill="#9cf" d="M509.219,256c0,12.014-0.862,23.867-2.478,35.45C489.555,414.504,383.903,509.219,256,509.219
			c-33.403,0-65.298-6.465-94.499-18.21c-27.423-11.045-52.422-26.723-74.08-46.118c7.273-7.112,17.079-11.745,27.046-13.9
			c13.9-2.963,28.339-1.67,42.401,0.269c58.941,8.028,118.097,26.723,176.823,17.025c19.719-3.233,40.784-11.26,49.782-29.093
			c11.206-22.305-1.239-48.866-14.978-69.716c-13.738-20.796-29.74-43.748-25.376-68.315c5.98-33.996,48.435-53.391,51.883-87.765
			c2.317-22.52-13.199-42.563-19.18-64.382c-7.866-28.878,1.67-59.965,19.396-84.532C463.909,89.737,509.219,167.589,509.219,256z"></path><path fill="#72a1e4" d="M509.219,256c0,12.014-0.862,23.867-2.478,35.45c-8.297-8.943-9.59-20.688-13.9-30.817
			c-9.967-23.49-32.595-20.635-37.983,1.024c-4.041,16.324,4.364,39.922-18.965,65.783c-6.411,7.111-16.54,13.146-25.322,9.213
			c-16.702-7.489-7.758-39.168-24.514-46.549c-9.644-4.256-20.85,3.987-24.46,13.846c-3.61,9.913-2.101,20.743-2.209,31.249
			c-0.539,50.213-58.187,38.306-51.452-16.271c3.34-27.369,21.82-64.814,2.802-91.967c-8.89-12.769-24.137-19.18-36.528-28.608
			c-12.338-9.428-22.574-26.184-15.409-40.03c8.459-16.325,34.75-16.54,42.832-33.08c8.351-17.133-9.051-39.168,0.161-55.87
			c10.021-18.21,39.114-10.937,55.924-23.113c5.711-4.149,9.321-10.183,11.152-16.971C452.11,70.773,509.219,156.759,509.219,256z"></path><path fill="#638cd6" d="M506.741 291.45c-8.297-8.943-9.59-20.688-13.9-30.817-9.967-23.49-32.595-20.635-37.983 1.024-4.041 16.324 4.364 39.922-18.965 65.783-6.411 7.111-16.54 13.146-25.322 9.213-16.702-7.489-7.758-39.168-24.514-46.549-9.644-4.256-20.85 3.987-24.46 13.846-3.61 9.913-2.101 20.743-2.209 31.249v.323c-10.667-16.971-19.665-35.181-16.27-54.361 5.98-33.996 48.435-53.391 51.883-87.765 2.317-22.52-13.199-42.563-19.18-64.382-7.866-28.878 1.67-59.965 19.396-84.532.161.108.323.215.485.323C473.43 95.221 520.694 191.453 506.741 291.45zM119.1 161.339c-28.554 3.933-29.417 6.196-35.989 29.794-7.112 25.699-29.255 19.18-33.619-3.771-1.994-10.452-1.886-22.413-9.482-29.902-4.041-3.933-9.051-5.657-14.601-6.25 22.466-49.243 60.234-90.082 107.214-116.373 1.024 6.088.431 12.338-2.263 17.995-7.974 16.809-38.953 28.824-32.056 50.267 3.34 10.29 15.085 14.708 25.052 19.018C151.21 134.131 148.032 157.352 119.1 161.339z"></path><path fill="#72a1e4" d="M84.781 81.494c-1.563 9.913-5.765 19.665-4.256 29.578.7 4.58 2.532 9.59.162 13.523-1.886 3.232-5.98 4.472-9.752 4.526-3.717.054-7.489-.754-11.206-.539-8.728.646-16.055 7.004-24.622 8.62-.97.161-1.939.269-2.909.323C45.72 111.988 63.5 89.09 84.565 69.695 85.373 73.574 85.373 77.723 84.781 81.494zM261.388 455.127c-23.921 12.499-73.218-3.717-95.469 27.962-1.778 2.532-3.179 5.172-4.418 7.92C89.737 462.077 34.299 401.305 12.64 326.201c7.327-1.401 14.331-4.472 20.258-9.213 7.92-6.357 13.792-15.032 21.982-21.12 8.135-6.088 20.257-8.997 28.177-2.586 10.398 8.513 6.034 25.591 11.906 37.714 6.627 13.738 24.622 17.564 39.815 16.055 15.193-1.508 30.386-6.681 45.418-4.148 15.086 2.532 29.794 17.402 24.568 31.733-1.401 3.933-4.148 7.327-5.226 11.368-2.694 10.344 6.896 20.365 17.187 23.275 17.133 4.849 49.836-4.849 58.456 16.863C279.49 437.079 271.786 449.686 261.388 455.127z"></path><path fill="#638cd6" d="M261.388,455.127c-23.921,12.499-73.218-3.717-95.469,27.962c-1.778,2.532-3.179,5.172-4.418,7.92
			c-58.187-23.436-105.652-67.885-133.075-123.862c6.196-1.293,12.553-1.509,18.803-0.593c15.84,2.263,30.494,11.638,39.168,25.053
			c6.196,9.536,10.129,21.605,20.204,26.992c12.823,6.842,28.447-0.808,42.993-0.054c13.738,0.754,25.699,8.943,37.606,15.732
			c11.906,6.788,26.076,12.499,39.06,7.974c10.128-3.556,17.133-12.607,25.268-19.611c3.664-3.179,7.65-5.927,11.799-8.297
			c5.226,2.209,9.482,5.764,11.853,11.799C279.49,437.079,271.786,449.686,261.388,455.127z"></path><path fill="#24272b" d="M370.077,26.878C334.521,9.1,296.139,0.087,256,0.087c-43.711,0-86.828,11.204-124.692,32.4
				c-47.36,26.504-85.842,68.272-108.35,117.607C7.782,183.422,0.087,219.055,0.087,256c0,24.073,3.351,47.942,9.965,70.947
				c21.64,75.04,77.881,137.306,150.444,166.562c30.366,12.212,62.497,18.404,95.504,18.404
				c126.944,0,235.886-94.618,253.409-220.091c1.663-11.914,2.504-23.966,2.504-35.822
				C511.913,158.278,457.563,70.481,370.077,26.878z M504.074,291.078C486.919,413.904,380.271,506.526,256,506.526
				c-32.315,0-63.77-6.061-93.492-18.015C91.472,459.873,36.414,398.915,15.229,325.455C8.758,302.937,5.474,279.568,5.474,256
				c0-36.169,7.532-71.05,22.387-103.673C49.896,104.028,87.57,63.136,133.939,37.19C171,16.442,213.209,5.474,256,5.474
				c39.295,0,76.866,8.823,111.67,26.223C453.32,74.385,506.526,160.332,506.526,256
				C506.526,267.609,505.699,279.41,504.074,291.078z"></path><path fill="#24272b" d="M411.673 334.197c-14.884-6.678-6.18-38.477-24.529-46.558-4.314-1.907-9.123-1.844-13.89.187-15.892 6.755-17.121 22.699-16.668 39.847 1.524 58.106-52.146 41.621-45.977-8.418.871-7.121 2.794-14.969 4.83-23.279 5.703-23.263 12.164-49.628-2.491-70.555-9.269-13.309-24.838-19.873-37.103-29.211-11.972-9.147-20.848-24.673-14.653-36.648 7.793-15.038 34.324-15.668 42.864-33.139 12.97-26.62-28.259-59.197 28.219-69.037 9.497-1.655 19.314-3.365 27.022-8.947 2.857-2.07 5.348-4.696 7.403-7.808.818-1.242.476-2.912-.766-3.733-1.242-.813-2.915-.476-3.733.766-6.717 10.18-18.123 12.2-30.85 14.414-61.346 10.695-21.139 49.417-32.139 71.981-7.511 15.378-33.815 15.674-42.804 33.026-7.916 15.29 2.831 33.22 16.168 43.412 32.376 24.642 54.891 23.782 37.629 94.2-2.076 8.468-4.038 16.468-4.943 23.905-2.491 20.191 3.478 37.448 15.968 46.158 17.191 11.99 40.504 2.631 40.849-29.529.17-16.512-2.879-35.571 13.28-42.444 2.341-.997 5.916-1.844 9.61-.216 14.918 6.572 6.218 38.343 24.497 46.545 10.268 4.58 21.411-2.089 28.425-9.87 24.036-26.643 15.689-51.213 19.58-66.938 4.751-19.095 23.897-21.801 32.891-.613 1.893 4.426 3.191 9.292 4.775 13.924.481 1.41 2.01 2.178 3.417 1.681 1.41-.479 2.162-2.01 1.681-3.417-.513-1.51-.994-3.033-1.476-4.551-1.023-3.228-2.081-6.569-3.441-9.749-11.038-26.015-37.085-22.659-43.077 1.428-4.193 16.933 4.29 39.532-18.352 64.625C428.407 331.719 419.287 337.593 411.673 334.197zM34.554 156.744c1.286.716 2.494 1.61 3.565 2.633 5.296 5.225 6.416 13.077 7.603 21.393 5.346 37.465 32.651 37.58 39.984 11.086 6.34-22.761 6.719-24.123 33.762-27.848 31.389-4.325 35.64-31.129 4.956-44.364-9.333-3.998-20.596-8.257-23.555-17.368-6.79-21.119 28.7-32.002 33.994-54.04.35-1.447-.539-2.902-1.986-3.249-1.436-.35-2.899.539-3.249 1.986-4.829 19.949-42.02 31.667-33.886 56.957 3.662 11.278 15.676 16.003 26.546 20.659 25.391 10.95 22.608 30.475-3.557 34.083-29.558 4.07-31.305 6.932-38.216 31.742-5.737 20.698-24.917 21.299-29.461-10.404-1.6-11.215-3.474-22.202-13.885-27.975-1.297-.726-2.941-.253-3.662 1.047C32.784 154.382 33.255 156.023 34.554 156.744zM217.458 406.688c-9.042-2.557-17.555-11.401-15.318-19.991 1.745-6.541 11.457-15.37 3.054-29.8-15.97-27.418-50.148-14.562-70.681-12.527-13.256 1.31-30.932-1.699-37.124-14.548-2.194-4.527-2.867-10.102-3.517-15.495-1.034-8.552-2.102-17.394-9.121-23.14-9.276-7.508-22.824-3.957-31.479 2.518-4.527 3.367-8.355 7.466-12.059 11.43-3.302 3.538-6.422 6.877-10.007 9.755-2.799 2.26-5.948 4.167-9.357 5.666-1.363.597-1.981 2.186-1.381 3.549.597 1.36 2.181 1.981 3.549 1.381 3.846-1.689 7.403-3.843 10.567-6.398 3.88-3.115 7.282-6.756 10.567-10.275 3.701-3.964 7.198-7.708 11.341-10.788 7.269-5.44 18.144-8.1 24.857-2.66 5.332 4.364 6.227 11.77 7.171 19.609.705 5.83 1.434 11.859 4.017 17.192 7.395 15.332 26.815 19.117 42.507 17.565 20.908-2.074 51.63-13.923 65.494 9.878 6.875 11.792-1.573 18.083-3.607 25.715-3.07 11.788 7.376 23.245 19.059 26.546 17.487 4.948 48.892-4.364 56.683 15.258 3.846 9.757-3.512 20.893-12.533 25.61-8.529 4.451-20.943 5.059-34.086 5.703-21.745 1.065-46.39 2.273-61.14 21.501-.908 1.179-.684 2.87.497 3.775.489.376 1.065.558 1.636.558.81 0 1.61-.363 2.139-1.055 13.235-17.247 35.551-18.341 57.131-19.399 13.751-.673 26.738-1.307 36.319-6.308 11.083-5.798 19.991-19.82 15.048-32.365C268.241 401.363 234.208 411.426 217.458 406.688z"></path></svg>